<svg xmlns="http://www.w3.org/2000/svg" version="1.1" xmlns:xlink="http://www.w3.org/1999/xlink" xmlns:svgjs="http://svgjs.dev/svgjs" width="2000" height="1500" viewBox="0 0 2000 1500"><rect width="2000" height="1500" fill="#ffffff"></rect><g transform="matrix(0.75,0,0,0.75,249.090909090909,282.7536437246964)"><svg viewBox="0 0 396 247" data-background-color="#ffffff" preserveAspectRatio="xMidYMid meet" height="1247" width="2000" xmlns="http://www.w3.org/2000/svg" xmlns:xlink="http://www.w3.org/1999/xlink"><g id="tight-bounds" transform="matrix(1,0,0,1,0.2400000000000091,-0.09999999999999432)"><svg viewBox="0 0 395.52 247.2" height="247.2" width="395.52"><g><svg></svg></g><g><svg viewBox="0 0 395.52 247.2" height="247.2" width="395.52"><g transform="matrix(1,0,0,1,75.54432,87.9112942127023)"><svg viewBox="0 0 244.43135999999998 71.37741157459538" height="71.37741157459538" width="244.43135999999998"><g><svg viewBox="0 0 244.43135999999998 71.37741157459538" height="71.37741157459538" width="244.43135999999998"><g><svg viewBox="0 0 244.43135999999998 71.37741157459538" height="71.37741157459538" width="244.43135999999998"><g><svg viewBox="0 0 244.43135999999998 71.37741157459538" height="71.37741157459538" width="244.43135999999998"><g id="textblocktransform"><svg viewBox="0 0 244.43135999999998 71.37741157459538" height="71.37741157459538" width="244.43135999999998" id="textblock"><g><svg viewBox="0 0 244.43135999999998 41.13415919111022" height="41.13415919111022" width="244.43135999999998"><g transform="matrix(1,0,0,1,0,0)"><svg width="244.43135999999998" viewBox="3.08 -40.5 243.85 41.04" height="41.13415919111022" data-palette-color="#0074d9"><path d="M3.08-5.08L7.2-11.35Q9.28-10.18 11.41-9.24 13.55-8.3 15.84-7.65 18.14-7.01 20.67-6.67 23.19-6.32 26.05-6.32L26.05-6.32Q29.49-6.32 31.91-6.77 34.33-7.23 35.85-8.02 37.38-8.81 38.07-9.91 38.77-11.01 38.77-12.3L38.77-12.3Q38.77-14.38 37.04-15.59 35.3-16.8 31.69-16.8L31.69-16.8Q30.1-16.8 28.34-16.59 26.59-16.38 24.79-16.14 23-15.89 21.25-15.69 19.51-15.48 17.97-15.48L17.97-15.48Q15.41-15.48 13.05-16.14 10.69-16.8 8.87-18.12 7.06-19.43 5.98-21.41 4.91-23.39 4.91-26.03L4.91-26.03Q4.91-27.59 5.33-29.13 5.76-30.66 6.7-32.07 7.64-33.47 9.13-34.68 10.62-35.89 12.73-36.77 14.84-37.65 17.61-38.15 20.39-38.65 23.93-38.65L23.93-38.65Q26.49-38.65 29.08-38.37 31.67-38.09 34.12-37.57 36.57-37.06 38.84-36.34 41.11-35.62 43.07-34.74L43.07-34.74 39.67-28.49Q38.06-29.2 36.21-29.8 34.35-30.4 32.32-30.83 30.3-31.27 28.14-31.53 25.98-31.79 23.73-31.79L23.73-31.79Q20.53-31.79 18.47-31.32 16.41-30.86 15.19-30.14 13.96-29.42 13.49-28.53 13.01-27.64 13.01-26.76L13.01-26.76Q13.01-25.05 14.55-23.96 16.09-22.88 19.24-22.88L19.24-22.88Q20.51-22.88 22.16-23.06 23.8-23.24 25.62-23.46 27.44-23.68 29.33-23.86 31.23-24.05 33.01-24.05L33.01-24.05Q36.38-24.05 38.98-23.29 41.58-22.53 43.33-21.13 45.09-19.73 46-17.74 46.9-15.75 46.9-13.28L46.9-13.28Q46.9-9.99 45.37-7.41 43.85-4.83 41.03-3.06 38.21-1.29 34.23-0.38 30.25 0.54 25.37 0.54L25.37 0.54Q22.14 0.54 19.07 0.13 15.99-0.27 13.17-1.01 10.35-1.76 7.8-2.8 5.25-3.83 3.08-5.08L3.08-5.08ZM54.54 0L54.54-40.5 61.77-40.5 61.77-16.58 75.24-28.81 86.3-28.81 71.24-15.33 87.25 0 76.41 0 65.7-10.38 61.77-6.86 61.77 0 54.54 0ZM95.82-32.74L95.82-32.74Q94.75-32.74 93.88-33.04 93.01-33.35 92.4-33.87 91.79-34.4 91.46-35.1 91.13-35.79 91.13-36.57L91.13-36.57Q91.13-37.38 91.46-38.07 91.79-38.77 92.4-39.28 93.01-39.79 93.88-40.1 94.75-40.41 95.82-40.41L95.82-40.41Q96.92-40.41 97.79-40.1 98.65-39.79 99.26-39.28 99.87-38.77 100.2-38.07 100.53-37.38 100.53-36.57L100.53-36.57Q100.53-35.79 100.2-35.1 99.87-34.4 99.26-33.87 98.65-33.35 97.79-33.04 96.92-32.74 95.82-32.74ZM92.21 0L92.21-28.81 99.43-28.81 99.43 0 92.21 0ZM108.88 0L108.88-40.5 116.11-40.5 116.11 0 108.88 0ZM125.55 0L125.55-40.5 132.78-40.5 132.78 0 125.55 0ZM142.93 0L142.93-38.16 163.05-38.16Q167.44-38.16 170.67-37.21 173.89-36.25 176.01-34.46 178.14-32.67 179.17-30.08 180.21-27.49 180.21-24.24L180.21-24.24Q180.21-21.19 179.19-18.6 178.16-16.02 176.05-14.12 173.94-12.23 170.72-11.17 167.49-10.11 163.1-10.11L163.1-10.11 150.67-10.13 150.67 0 142.93 0ZM150.67-16.82L163.24-16.82Q165.44-16.82 167.09-17.35 168.74-17.87 169.85-18.84 170.96-19.8 171.51-21.18 172.06-22.56 172.06-24.24L172.06-24.24Q172.06-27.64 169.85-29.53 167.64-31.42 163.24-31.42L163.24-31.42 150.67-31.42 150.67-16.82ZM187.75 0L187.75-28.81 194.98-28.81 194.98-24.66Q197.37-26.44 200.03-27.73 202.69-29.03 205.33-29.71L205.33-29.71 207.46-23.1Q203.28-22.68 200.12-21.23 196.96-19.78 194.98-17.14L194.98-17.14 194.98 0 187.75 0ZM211.09-14.4L211.09-14.4Q211.09-17.5 212.35-20.21 213.61-22.92 215.94-24.95 218.27-26.98 221.58-28.15 224.88-29.32 229.01-29.32L229.01-29.32Q233.14-29.32 236.44-28.15 239.75-26.98 242.08-24.95 244.42-22.92 245.67-20.21 246.93-17.5 246.93-14.4L246.93-14.4Q246.93-11.3 245.67-8.59 244.42-5.88 242.08-3.86 239.75-1.83 236.44-0.66 233.14 0.51 229.01 0.51L229.01 0.51Q224.88 0.51 221.58-0.66 218.27-1.83 215.94-3.86 213.61-5.88 212.35-8.59 211.09-11.3 211.09-14.4ZM218.68-14.4L218.68-14.4Q218.68-12.67 219.38-11.12 220.08-9.57 221.41-8.39 222.74-7.2 224.65-6.51 226.57-5.81 229.01-5.81L229.01-5.81Q231.45-5.81 233.37-6.51 235.29-7.2 236.62-8.39 237.95-9.57 238.64-11.12 239.34-12.67 239.34-14.4L239.34-14.4Q239.34-16.14 238.64-17.7 237.95-19.26 236.62-20.45 235.29-21.63 233.37-22.33 231.45-23.02 229.01-23.02L229.01-23.02Q226.57-23.02 224.65-22.33 222.74-21.63 221.41-20.45 220.08-19.26 219.38-17.7 218.68-16.14 218.68-14.4Z" opacity="1" transform="matrix(1,0,0,1,0,0)" fill="#0074d9" class="wordmark-text-0" data-fill-palette-color="primary" id="text-0"></path></svg></g></svg></g><g transform="matrix(1,0,0,1,0,50.84494695631076)"><svg viewBox="0 0 244.43135999999998 20.532464618284635" height="20.532464618284635" width="244.43135999999998"><g transform="matrix(1,0,0,1,0,0)"><svg width="244.43135999999998" viewBox="1.45 -34.85 424.36 35.650000000000006" height="20.532464618284635" data-palette-color="#0074d9"><path d="M15.35 0.8Q11.05 0.8 7.93-1.33 4.8-3.45 3.13-7.43 1.45-11.4 1.45-16.95L1.45-16.95Q1.45-22.55 3.13-26.58 4.8-30.6 7.93-32.73 11.05-34.85 15.35-34.85L15.35-34.85Q19.3-34.85 22.18-33.08 25.05-31.3 27.1-27.85L27.1-27.85 24.15-25.75Q21-31.45 15.35-31.45L15.35-31.45Q10.65-31.45 8.03-27.63 5.4-23.8 5.4-17L5.4-17Q5.4-10.25 8.05-6.43 10.7-2.6 15.35-2.6L15.35-2.6Q17.95-2.6 20.03-3.85 22.1-5.1 23.3-7.55 24.5-10 24.5-13.55L24.5-13.55 16.45-13.55 16.45-16.65 28.2-16.65 28.2-13.55Q28.2-8.9 26.55-5.68 24.9-2.45 21.98-0.83 19.05 0.8 15.35 0.8L15.35 0.8ZM57.35 0L53.4 0 44.75-15.05 38-15.05 38 0 34.25 0 34.25-34.1 45.65-34.1Q48.75-34.1 51.1-32.9 53.45-31.7 54.7-29.53 55.95-27.35 55.95-24.55L55.95-24.55Q55.95-21.15 53.9-18.73 51.85-16.3 48.45-15.45L48.45-15.45 57.35 0ZM38-31L38-18.15 45.15-18.15Q48.45-18.15 50.22-19.9 52-21.65 52-24.55L52-24.55Q52-27.45 50.22-29.23 48.45-31 45.15-31L45.15-31 38-31ZM76.7 0.8Q72.45 0.8 69.12-1.48 65.8-3.75 63.92-7.8 62.05-11.85 62.05-17L62.05-17Q62.05-22.15 63.92-26.23 65.8-30.3 69.12-32.58 72.45-34.85 76.7-34.85L76.7-34.85Q80.95-34.85 84.27-32.58 87.59-30.3 89.47-26.23 91.34-22.15 91.34-16.95L91.34-16.95Q91.34-11.8 89.47-7.78 87.59-3.75 84.27-1.48 80.95 0.8 76.7 0.8L76.7 0.8ZM76.7-2.65Q79.8-2.65 82.27-4.48 84.75-6.3 86.15-9.58 87.55-12.85 87.55-17L87.55-17Q87.55-21.15 86.15-24.45 84.75-27.75 82.27-29.6 79.8-31.45 76.7-31.45L76.7-31.45Q73.59-31.45 71.12-29.6 68.64-27.75 67.25-24.45 65.84-21.15 65.84-17L65.84-17Q65.84-12.85 67.25-9.58 68.64-6.3 71.12-4.48 73.59-2.65 76.7-2.65L76.7-2.65ZM123.64-5.15L130.99-34.1 134.54-34.1 125.44 0 121.54 0 114.44-27.4 107.14 0 103.29 0 94.19-34.1 98.04-34.1 105.34-5.4 112.94-34.1 115.99-34.1 123.64-5.15ZM159.09-17.1L168.29-34.1 171.74-34.1 160.69-13.95 160.69 0 156.99 0 156.99-14.1 146.04-34.1 149.79-34.1 159.09-17.1ZM188.39 0.8Q184.14 0.8 180.81-1.48 177.49-3.75 175.61-7.8 173.74-11.85 173.74-17L173.74-17Q173.74-22.15 175.61-26.23 177.49-30.3 180.81-32.58 184.14-34.85 188.39-34.85L188.39-34.85Q192.64-34.85 195.96-32.58 199.29-30.3 201.16-26.23 203.04-22.15 203.04-16.95L203.04-16.95Q203.04-11.8 201.16-7.78 199.29-3.75 195.96-1.48 192.64 0.8 188.39 0.8L188.39 0.8ZM188.39-2.65Q191.49-2.65 193.96-4.48 196.44-6.3 197.84-9.58 199.24-12.85 199.24-17L199.24-17Q199.24-21.15 197.84-24.45 196.44-27.75 193.96-29.6 191.49-31.45 188.39-31.45L188.39-31.45Q185.29-31.45 182.81-29.6 180.34-27.75 178.94-24.45 177.54-21.15 177.54-17L177.54-17Q177.54-12.85 178.94-9.58 180.34-6.3 182.81-4.48 185.29-2.65 188.39-2.65L188.39-2.65ZM222.38 0.8Q216.08 0.8 212.93-2.63 209.78-6.05 209.78-12.65L209.78-12.65 209.78-34.1 213.53-34.1 213.53-12.65Q213.53-2.6 222.38-2.6L222.38-2.6Q226.38-2.6 228.71-5.2 231.03-7.8 231.03-12.65L231.03-12.65 231.03-34.1 234.78-34.1 234.78-12.65Q234.78-6.15 231.51-2.68 228.23 0.8 222.38 0.8L222.38 0.8ZM265.83 0L261.88 0 253.23-15.05 246.48-15.05 246.48 0 242.73 0 242.73-34.1 254.13-34.1Q257.23-34.1 259.58-32.9 261.93-31.7 263.18-29.53 264.43-27.35 264.43-24.55L264.43-24.55Q264.43-21.15 262.38-18.73 260.33-16.3 256.93-15.45L256.93-15.45 265.83 0ZM246.48-31L246.48-18.15 253.63-18.15Q256.93-18.15 258.71-19.9 260.48-21.65 260.48-24.55L260.48-24.55Q260.48-27.45 258.71-29.23 256.93-31 253.63-31L253.63-31 246.48-31ZM294.28 0.8Q290.53 0.8 286.98-1.07 283.43-2.95 281.07-6.15L281.07-6.15 284.13-8.85Q285.93-6 288.73-4.33 291.53-2.65 294.78-2.65L294.78-2.65Q298.32-2.65 300.18-4.23 302.03-5.8 302.03-8.5L302.03-8.5Q302.03-11.45 300.05-13.03 298.07-14.6 293.78-15.8L293.78-15.8Q282.98-18.45 282.98-25.6L282.98-25.6Q282.98-30.05 285.88-32.45 288.78-34.85 293.93-34.85L293.93-34.85Q297.68-34.85 300.65-33.45 303.63-32.05 305.98-29.15L305.98-29.15 303.03-26.65Q301.23-29.1 299.07-30.28 296.93-31.45 293.93-31.45L293.93-31.45Q290.78-31.45 288.78-29.98 286.78-28.5 286.78-25.95L286.78-25.95Q286.78-23.35 288.63-21.83 290.48-20.3 294.88-19.25L294.88-19.25Q300.07-17.85 302.95-15.4 305.82-12.95 305.82-8.5L305.82-8.5Q305.82-5.75 304.43-3.65 303.03-1.55 300.4-0.38 297.78 0.8 294.28 0.8L294.28 0.8ZM335.32 0L331.07 0 319.37-16.4 315.77-12.15 315.77 0 312.02 0 312.02-34.1 315.77-34.1 315.77-16.85 330.17-34.1 334.32-34.1 321.57-19 335.32 0ZM348.42 0L338.07 0 338.07-3.3 341.37-3.3 341.37-30.8 338.07-30.8 338.07-34.1 348.42-34.1 348.42-30.8 345.12-30.8 345.12-3.3 348.42-3.3 348.42 0ZM374.22 0L355.12 0 355.12-34.1 358.87-34.1 358.87-3.1 374.22-3.1 374.22 0ZM398.02 0L378.92 0 378.92-34.1 382.67-34.1 382.67-3.1 398.02-3.1 398.02 0ZM414.11 0.8Q410.36 0.8 406.81-1.07 403.26-2.95 400.91-6.15L400.91-6.15 403.96-8.85Q405.76-6 408.56-4.33 411.36-2.65 414.61-2.65L414.61-2.65Q418.16-2.65 420.01-4.23 421.86-5.8 421.86-8.5L421.86-8.5Q421.86-11.45 419.89-13.03 417.91-14.6 413.61-15.8L413.61-15.8Q402.81-18.45 402.81-25.6L402.81-25.6Q402.81-30.05 405.71-32.45 408.61-34.85 413.76-34.85L413.76-34.85Q417.51-34.85 420.49-33.45 423.46-32.05 425.81-29.15L425.81-29.15 422.86-26.65Q421.06-29.1 418.91-30.28 416.76-31.45 413.76-31.45L413.76-31.45Q410.61-31.45 408.61-29.98 406.61-28.5 406.61-25.95L406.61-25.95Q406.61-23.35 408.46-21.83 410.31-20.3 414.71-19.25L414.71-19.25Q419.91-17.85 422.79-15.4 425.66-12.95 425.66-8.5L425.66-8.5Q425.66-5.75 424.26-3.65 422.86-1.55 420.24-0.38 417.61 0.8 414.11 0.8L414.11 0.8Z" opacity="1" transform="matrix(1,0,0,1,0,0)" fill="#0074d9" class="slogan-text-1" data-fill-palette-color="secondary" id="text-1"></path></svg></g></svg></g></svg></g></svg></g></svg></g></svg></g></svg></g><g><path d="M245.816 0c68.262 0 123.6 55.338 123.6 123.6 0 68.262-55.338 123.6-123.6 123.6-54.061 0-100.016-34.708-116.797-83.056h1.966c16.702 47.305 61.808 81.201 114.831 81.201 67.238 0 121.745-54.507 121.745-121.745 0-67.238-54.507-121.745-121.745-121.745-53.023 0-98.129 33.896-114.831 81.201l-1.966 0c16.781-48.348 62.736-83.056 116.797-83.056z" fill="#0074d9" stroke="transparent" data-fill-palette-color="tertiary"></path></g></svg></g><defs></defs></svg><rect width="395.52" height="247.2" fill="none" stroke="none" visibility="hidden"></rect></g></svg></g></svg>